{
    "asset" : {
        "generator" : "Khronos glTF Blender I/O v1.7.33",
        "version" : "2.0"
    },
    "scene" : 0,
    "scenes" : [
        {
            "name" : "Scene",
            "nodes" : [
                0
            ]
        }
    ],
    "nodes" : [
        {
            "mesh" : 0,
            "name" : "MotiusLogo2",
            "scale" : [
                0.009682298637926579,
                0.009682298637926579,
                0.009682298637926579
            ]
        }
    ],
    "materials" : [
        {
            "doubleSided" : true,
            "name" : "DarkBlue",
            "pbrMetallicRoughness" : {
                "baseColorFactor" : [
                    0.0037311138585209846,
                    0.06251956522464752,
                    0.12477002292871475,
                    1
                ],
                "metallicFactor" : 0,
                "roughnessFactor" : 0.5
            }
        },
        {
            "doubleSided" : true,
            "name" : "Lightblue",
            "pbrMetallicRoughness" : {
                "baseColorFactor" : [
                    0.054480165243148804,
                    0.49102094769477844,
                    0.6444798111915588,
                    1
                ],
                "metallicFactor" : 0,
                "roughnessFactor" : 0.5
            }
        }
    ],
    "meshes" : [
        {
            "name" : "MotiusLogo2",
            "primitives" : [
                {
                    "attributes" : {
                        "POSITION" : 0,
                        "NORMAL" : 1
                    },
                    "indices" : 2,
                    "material" : 0
                },
                {
                    "attributes" : {
                        "POSITION" : 3,
                        "NORMAL" : 4
                    },
                    "indices" : 5,
                    "material" : 1
                }
            ]
        }
    ],
    "accessors" : [
        {
            "bufferView" : 0,
            "componentType" : 5126,
            "count" : 619,
            "max" : [
                398.1388854980469,
                16.689655303955078,
                426.5897521972656
            ],
            "min" : [
                -395.9032287597656,
                -23.310344696044922,
                -444.1324157714844
            ],
            "type" : "VEC3"
        },
        {
            "bufferView" : 1,
            "componentType" : 5126,
            "count" : 619,
            "type" : "VEC3"
        },
        {
            "bufferView" : 2,
            "componentType" : 5123,
            "count" : 669,
            "type" : "SCALAR"
        },
        {
            "bufferView" : 3,
            "componentType" : 5126,
            "count" : 94,
            "max" : [
                322.20391845703125,
                16.689655303955078,
                299.6781005859375
            ],
            "min" : [
                -288.1626892089844,
                -3.310344696044922,
                -309.5855712890625
            ],
            "type" : "VEC3"
        },
        {
            "bufferView" : 4,
            "componentType" : 5126,
            "count" : 94,
            "type" : "VEC3"
        },
        {
            "bufferView" : 5,
            "componentType" : 5123,
            "count" : 117,
            "type" : "SCALAR"
        }
    ],
    "bufferViews" : [
        {
            "buffer" : 0,
            "byteLength" : 7428,
            "byteOffset" : 0
        },
        {
            "buffer" : 0,
            "byteLength" : 7428,
            "byteOffset" : 7428
        },
        {
            "buffer" : 0,
            "byteLength" : 1338,
            "byteOffset" : 14856
        },
        {
            "buffer" : 0,
            "byteLength" : 1128,
            "byteOffset" : 16196
        },
        {
            "buffer" : 0,
            "byteLength" : 1128,
            "byteOffset" : 17324
        },
        {
            "buffer" : 0,
            "byteLength" : 234,
            "byteOffset" : 18452
        }
    ],
    "buffers" : [
        {
            "byteLength" : 18688,
            "uri" : "data:application/octet-stream;base64,"
        }
    ]
}
