{
    "asset" : {
        "generator" : "Khronos glTF Blender I/O v1.7.33",
        "version" : "2.0"
    },
    "scene" : 0,
    "scenes" : [
        {
            "name" : "Scene",
            "nodes" : [
                0
            ]
        }
    ],
    "nodes" : [
        {
            "mesh" : 0,
            "name" : "Mesh_1.003",
            "rotation" : [
                -0.7071068286895752,
                0,
                0,
                0.7071067094802856
            ],
            "scale" : [
                0.5558558106422424,
                0.5558557510375977,
                0.5558557510375977
            ]
        }
    ],
    "materials" : [
        {
            "doubleSided" : true,
            "name" : "Material.001",
            "pbrMetallicRoughness" : {
                "baseColorFactor" : [
                    0.0024281740188598633,
                    0.5028865933418274,
                    0.9734452962875366,
                    1
                ],
                "metallicFactor" : 0,
                "roughnessFactor" : 0.5
            }
        },
        {
            "doubleSided" : true,
            "name" : "Material.002",
            "pbrMetallicRoughness" : {
                "baseColorFactor" : [
                    0.0024281740188598633,
                    0.5028865933418274,
                    0.9734452962875366,
                    1
                ],
                "metallicFactor" : 0,
                "roughnessFactor" : 0.5
            }
        }
    ],
    "meshes" : [
        {
            "name" : "Mesh_1.003",
            "primitives" : [
                {
                    "attributes" : {
                        "POSITION" : 0,
                        "NORMAL" : 1,
                        "COLOR_0" : 2
                    },
                    "indices" : 3,
                    "material" : 0
                },
                {
                    "attributes" : {
                        "POSITION" : 4,
                        "NORMAL" : 5,
                        "COLOR_0" : 6
                    },
                    "indices" : 7,
                    "material" : 1
                }
            ]
        }
    ],
    "accessors" : [
        {
            "bufferView" : 0,
            "componentType" : 5126,
            "count" : 2782,
            "max" : [
                0.3489835858345032,
                0.2821820080280304,
                0.020000001415610313
            ],
            "min" : [
                -0.3479810655117035,
                -0.44422322511672974,
                -6.308036893802908e-15
            ],
            "type" : "VEC3"
        },
        {
            "bufferView" : 1,
            "componentType" : 5126,
            "count" : 2782,
            "type" : "VEC3"
        },
        {
            "bufferView" : 2,
            "componentType" : 5123,
            "count" : 2782,
            "normalized" : true,
            "type" : "VEC4"
        },
        {
            "bufferView" : 3,
            "componentType" : 5123,
            "count" : 3096,
            "type" : "SCALAR"
        },
        {
            "bufferView" : 4,
            "componentType" : 5126,
            "count" : 614,
            "max" : [
                0.358588844537735,
                -0.33727598190307617,
                0.020000001415610313
            ],
            "min" : [
                -0.34803304076194763,
                -0.4443638026714325,
                -6.314789440458419e-15
            ],
            "type" : "VEC3"
        },
        {
            "bufferView" : 5,
            "componentType" : 5126,
            "count" : 614,
            "type" : "VEC3"
        },
        {
            "bufferView" : 6,
            "componentType" : 5123,
            "count" : 614,
            "normalized" : true,
            "type" : "VEC4"
        },
        {
            "bufferView" : 7,
            "componentType" : 5123,
            "count" : 672,
            "type" : "SCALAR"
        }
    ],
    "bufferViews" : [
        {
            "buffer" : 0,
            "byteLength" : 33384,
            "byteOffset" : 0
        },
        {
            "buffer" : 0,
            "byteLength" : 33384,
            "byteOffset" : 33384
        },
        {
            "buffer" : 0,
            "byteLength" : 22256,
            "byteOffset" : 66768
        },
        {
            "buffer" : 0,
            "byteLength" : 6192,
            "byteOffset" : 89024
        },
        {
            "buffer" : 0,
            "byteLength" : 7368,
            "byteOffset" : 95216
        },
        {
            "buffer" : 0,
            "byteLength" : 7368,
            "byteOffset" : 102584
        },
        {
            "buffer" : 0,
            "byteLength" : 4912,
            "byteOffset" : 109952
        },
        {
            "buffer" : 0,
            "byteLength" : 1344,
            "byteOffset" : 114864
        }
    ],
    "buffers" : [
        {
            "byteLength" : 116208,
            "uri" : "data:application/octet-stream;base64,"
        }
    ]
}
