{
    "asset" : {
        "generator" : "Khronos glTF Blender I/O v1.7.33",
        "version" : "2.0"
    },
    "scene" : 0,
    "scenes" : [
        {
            "name" : "Scene",
            "nodes" : [
                0
            ]
        }
    ],
    "nodes" : [
        {
            "mesh" : 0,
            "name" : "node_id3",
            "rotation" : [
                0.011976371519267559,
                -0.03206462413072586,
                -0.0005894510541111231,
                0.9994139075279236
            ],
            "scale" : [
                0.0007245743181556463,
                0.0007245744345709682,
                0.0007245744345709682
            ],
            "translation" : [
                0.007104089949280024,
                0.05778053402900696,
                -0.03677952289581299
            ]
        }
    ],
    "materials" : [
        {
            "alphaCutoff" : 0.5,
            "alphaMode" : "MASK",
            "doubleSided" : true,
            "name" : "50",
            "pbrMetallicRoughness" : {}
        }
    ],
    "meshes" : [
        {
            "name" : "mesh_id4",
            "primitives" : [
                {
                    "attributes" : {
                        "POSITION" : 0,
                        "NORMAL" : 1,
                        "TEXCOORD_0" : 2,
                        "COLOR_0" : 3
                    },
                    "indices" : 4,
                    "material" : 0
                }
            ]
        }
    ],
    "accessors" : [
        {
            "bufferView" : 0,
            "componentType" : 5126,
            "count" : 2649,
            "max" : [
                358.5888366699219,
                20,
                444.36376953125
            ],
            "min" : [
                -348.03302001953125,
                0,
                -282.1820068359375
            ],
            "type" : "VEC3"
        },
        {
            "bufferView" : 1,
            "componentType" : 5126,
            "count" : 2649,
            "type" : "VEC3"
        },
        {
            "bufferView" : 2,
            "componentType" : 5126,
            "count" : 2649,
            "type" : "VEC2"
        },
        {
            "bufferView" : 3,
            "componentType" : 5123,
            "count" : 2649,
            "normalized" : true,
            "type" : "VEC4"
        },
        {
            "bufferView" : 4,
            "componentType" : 5123,
            "count" : 3768,
            "type" : "SCALAR"
        }
    ],
    "bufferViews" : [
        {
            "buffer" : 0,
            "byteLength" : 31788,
            "byteOffset" : 0
        },
        {
            "buffer" : 0,
            "byteLength" : 31788,
            "byteOffset" : 31788
        },
        {
            "buffer" : 0,
            "byteLength" : 21192,
            "byteOffset" : 63576
        },
        {
            "buffer" : 0,
            "byteLength" : 21192,
            "byteOffset" : 84768
        },
        {
            "buffer" : 0,
            "byteLength" : 7536,
            "byteOffset" : 105960
        }
    ],
    "buffers" : [
        {
            "byteLength" : 113496,
            "uri" : "data:application/octet-stream;base64,"
        }
    ]
}
