{"asset":{"version":"2.0","generator":"Unity 2020.3.15f2 glTFast 4.8.5"},"nodes":[{"name":"Renderer_Avatar","mesh":0},{"name":"LeftToe_End","translation":[-5.289294E-07,0.0990749,5.0821324E-08],"rotation":[0.006907886,0.6984091,0.0176702831,0.7154473]},{"name":"LeftToeBase","children":[1],"translation":[4.079096E-07,0.1488444,-2.989274E-08],"rotation":[0.2682286,-0.0437533222,0.0185466986,0.962182462]},{"name":"LeftFoot","children":[2],"translation":[3.294053E-07,0.4438585,-4.15560152E-07],"rotation":[0.5074415,0.016669346,0.00155817682,0.8615235]},{"name":"LeftLeg","children":[3],"translation":[1.21760113E-08,0.458173573,-2.168937E-09],"rotation":[-0.0416549779,-0.000307998882,-0.0029114,0.9991278]},{"name":"LeftUpLeg","children":[4],"translation":[0.0953437239,0.005192824,-0.00330230081],"rotation":[0.0014231432,-0.009613876,-0.999410152,0.0329381861]},{"name":"RightToe_End","translation":[5.476556E-07,0.09907483,4.28961364E-08],"rotation":[0.006907132,-0.698429942,-0.017670298,0.7154269]},{"name":"RightToeBase","children":[6],"translation":[-6.630686E-08,0.148844019,1.2200961E-07],"rotation":[0.268229276,0.04374693,-0.0185552929,0.9621824]},{"name":"RightFoot","children":[7],"translation":[-4.129087E-10,0.443858922,1.61165712E-08],"rotation":[0.507441163,-0.016667394,-0.00155495142,0.8615238]},{"name":"RightLeg","children":[8],"translation":[2.55005617E-08,0.4581739,-2.94215141E-09],"rotation":[-0.0416553281,0.0003088506,0.00291175,0.9991278]},{"name":"RightUpLeg","children":[9],"translation":[-0.09534402,0.00519318134,-0.00329233659],"rotation":[0.0014774939,0.009615628,0.9994101,0.0329378136],"scale":[1.00004172,1.00000024,1.00000381]},{"name":"LeftHandIndex4","translation":[7.51291864E-08,0.0338387936,1.41887355E-07],"rotation":[0.0447840281,0.0567465276,-0.00713269133,0.9973582]},{"name":"LeftHandIndex3","children":[11],"translation":[9.92791342E-08,0.0283454675,1.48022E-07],"rotation":[0.0844236,-0.07587215,-0.0212712083,0.993309438]},{"name":"LeftHandIndex2","children":[12],"translation":[6.15929E-08,0.0446785539,-3.465547E-08],"rotation":[0.09492985,-0.005799142,0.02565278,0.9951365]},{"name":"LeftHandIndex1","children":[13],"translation":[-0.0353465453,0.09745356,-0.00695215538],"rotation":[0.09073039,-0.0514914,0.07105807,0.9920017]},{"name":"LeftHandMiddle4","translation":[-2.94375759E-08,0.03456233,-1.12383454E-07],"rotation":[0.02381349,0.0224588066,-0.00164721312,0.9994628]},{"name":"LeftHandMiddle3","children":[15],"translation":[-5.18041743E-09,0.03540731,2.19850421E-07],"rotation":[0.201825187,-0.0226000976,-0.043592263,0.978189945]},{"name":"LeftHandMiddle2","children":[16],"translation":[-3.029391E-08,0.0456978977,5.253088E-08],"rotation":[0.127577513,-0.009709413,0.0430859253,0.990844846]},{"name":"LeftHandMiddle1","children":[17],"translation":[-0.009198953,0.100197136,-0.003484292],"rotation":[0.03872444,-0.06741375,0.0152061367,0.996857345]},{"name":"LeftHandPinky4","translation":[-6.546979E-08,0.0263241455,-1.0823797E-07],"rotation":[0.137403086,0.104531042,-0.0123816961,0.984906256]},{"name":"LeftHandPinky3","children":[19],"translation":[2.03720649E-08,0.0223761685,8.210602E-08],"rotation":[0.122705191,-0.011933404,0.0121578164,0.992296934]},{"name":"LeftHandPinky2","children":[20],"translation":[1.77001436E-08,0.0281522553,-2.56590162E-08],"rotation":[0.121482342,-0.21082823,0.05947557,0.96812]},{"name":"LeftHandPinky1","children":[21],"translation":[0.0391314551,0.08981313,0.0105444985],"rotation":[0.09903856,-0.0710166,-0.155252725,0.9803288]},{"name":"LeftHandRing4","translation":[-6.81777856E-10,0.0298129953,-1.10134746E-08],"rotation":[0.00665063225,-0.00689841667,0.0221167076,0.9997095]},{"name":"LeftHandRing3","children":[23],"translation":[1.388993E-08,0.03616318,-9.222352E-08],"rotation":[0.03905666,-0.005788787,0.00189609418,0.999218464]},{"name":"LeftHandRing2","children":[24],"translation":[3.940681E-08,0.0418995619,5.72169974E-08],"rotation":[0.18622826,-0.0161960274,0.04585651,0.981302142]},{"name":"LeftHandRing1","children":[25],"translation":[0.0154217975,0.0956038758,0.00223013875],"rotation":[0.06409992,-0.05493014,-0.05797334,0.9947427]},{"name":"LeftHandThumb4","translation":[1.05921893E-09,0.0352850929,-4.3754163E-08],"rotation":[0.0129755428,0.05238602,-0.00692920433,0.9985186]},{"name":"LeftHandThumb3","children":[27],"translation":[2.18865068E-08,0.0304867327,2.37748914E-08],"rotation":[0.009754217,-0.0248018149,-0.08479521,0.996041954]},{"name":"LeftHandThumb2","children":[28],"translation":[7.433053E-08,0.0413825549,1.39050087E-07],"rotation":[0.05050661,-0.07432596,-0.249844834,0.964107]},{"name":"LeftHandThumb1","children":[29],"translation":[-0.0323559754,0.0263516977,0.005172948],"rotation":[0.168016031,-0.009934098,0.414887279,0.8941703]},{"name":"LeftHand","children":[14,18,22,26,30],"translation":[9.938855E-08,0.25197196,-1.853731E-07],"rotation":[0.0462270528,0.0387182236,-0.0185173713,0.998008549]},{"name":"LeftForeArm","children":[31],"translation":[2.23517418E-08,0.2851288,3.434252E-08],"rotation":[-0.04964981,0.0232877266,0.220481142,0.9738484]},{"name":"LeftArm","children":[32],"translation":[-2.521276E-08,0.118895583,2.43151646E-07],"rotation":[0.476681978,0.04260029,-0.058619123,0.8760841]},{"name":"LeftShoulder","children":[33],"translation":[0.047135558,0.141147956,-0.00625509769],"rotation":[0.504936039,0.4894799,-0.5147033,0.490438223]},{"name":"HeadTop_End","translation":[1.34101485E-08,0.226344913,0.03732243],"rotation":[-0.00361182727,3.02868131E-07,2.99737025E-07,0.9999935]},{"name":"LeftEye","translation":[0.0303526931,0.08783956,0.08240611],"rotation":[-0.00361101632,6.4495E-08,5.982357E-08,0.999993563]},{"name":"RightEye","translation":[-0.0298822634,0.0877909139,0.08240653],"rotation":[-0.00361101632,6.449497E-08,5.982357E-08,0.999993563]},{"name":"Head","children":[35,36,37],"translation":[-2.42023459E-12,0.12263792,-4.04134042E-08],"rotation":[-0.1626758,-3.13644165E-07,-3.860983E-07,0.9866796]},{"name":"Neck","children":[38],"translation":[5.253336E-13,0.155574873,-1.74359123E-08],"rotation":[0.203068614,6.80284344E-08,1.13247857E-07,0.9791646]},{"name":"RightHandIndex4","translation":[7.380856E-08,0.0338386074,7.911326E-08],"rotation":[0.0447941758,-0.0567352064,0.00713710068,0.9973583]},{"name":"RightHandIndex3","children":[40],"translation":[-1.44809515E-08,0.02834586,8.107084E-08],"rotation":[0.0844165161,0.0758634,0.0212717373,0.9933107]},{"name":"RightHandIndex2","children":[41],"translation":[-1.14768772E-08,0.0446785,-3.45849749E-08],"rotation":[0.0949312,0.005800278,-0.02565419,0.9951363]},{"name":"RightHandIndex1","children":[42],"translation":[0.0353462324,0.09745403,-0.006951884],"rotation":[0.0907278061,0.051487226,-0.07105837,0.9920021]},{"name":"RightHandMiddle4","translation":[1.65725424E-08,0.0345626026,-5.42622036E-09],"rotation":[0.0238039847,-0.0224683173,0.001642186,0.9994628]},{"name":"RightHandMiddle3","children":[44],"translation":[1.09405427E-08,0.03540749,-9.794468E-08],"rotation":[0.201828033,0.0226033926,0.0435944051,0.97818923]},{"name":"RightHandMiddle2","children":[45],"translation":[1.37873073E-07,0.04569771,-1.01478676E-07],"rotation":[0.127577752,0.009707266,-0.0430845059,0.9908448]},{"name":"RightHandMiddle1","children":[46],"translation":[0.009198715,0.100197829,-0.00348405028],"rotation":[0.0387222432,0.06741171,-0.0152070448,0.9968576]},{"name":"RightHandPinky4","translation":[7.46499751E-08,0.02632436,1.90642453E-08],"rotation":[0.137399167,-0.104535833,0.0123812361,0.9849063]},{"name":"RightHandPinky3","children":[48],"translation":[2.0890635E-08,0.0223758481,-3.48680885E-07],"rotation":[0.122706421,0.0119324652,-0.0121591557,0.9922968]},{"name":"RightHandPinky2","children":[49],"translation":[1.54835149E-08,0.0281520728,2.19890822E-07],"rotation":[0.121480137,0.210827261,-0.0594748445,0.968120456]},{"name":"RightHandPinky1","children":[50],"translation":[-0.03913175,0.08981338,0.0105437078],"rotation":[0.0990356356,0.07101299,0.155253366,0.9803293]},{"name":"RightHandRing4","translation":[5.425849E-08,0.0298128258,-1.15081171E-07],"rotation":[0.006658018,0.006906372,-0.0221154317,0.9997094]},{"name":"RightHandRing3","children":[52],"translation":[-2.244172E-08,0.0361626036,3.512844E-08],"rotation":[0.0390606672,0.005795597,-0.00189741154,0.9992182]},{"name":"RightHandRing2","children":[53],"translation":[-6.937644E-08,0.0419004075,-1.953843E-08],"rotation":[0.1862261,0.0161924455,-0.0458555,0.9813027]},{"name":"RightHandRing1","children":[54],"translation":[-0.0154220369,0.09560418,0.00222982955],"rotation":[0.06409586,0.0549258552,0.05797282,0.9947432]},{"name":"RightHandThumb4","translation":[2.87304243E-08,0.0352848358,-7.73318E-08],"rotation":[0.0129807061,-0.0523779877,0.006926312,0.998518944]},{"name":"RightHandThumb3","children":[56],"translation":[4.38176819E-08,0.0304864831,7.21336E-08],"rotation":[0.0097630145,0.0248164311,0.0847952142,0.9960415]},{"name":"RightHandThumb2","children":[57],"translation":[1.00993262E-07,0.04138234,-1.60165889E-08],"rotation":[0.0505022854,0.0743126646,0.249844715,0.9641083]},{"name":"RightHandThumb1","children":[58],"translation":[0.032355845,0.02635209,0.00517330226],"rotation":[0.168015912,0.009927941,-0.414886117,0.8941709]},{"name":"RightHand","children":[43,47,51,55,59],"translation":[-8.284585E-09,0.251971662,1.45068981E-07],"rotation":[0.04622953,-0.03871487,0.0185173489,0.998008549]},{"name":"RightForeArm","children":[60],"translation":[-4.660872E-08,0.285128057,3.59263161E-08],"rotation":[-0.0496487878,-0.02328586,-0.220481172,0.9738485]},{"name":"RightArm","children":[61],"translation":[-5.762799E-09,0.11889565,-2.618816E-07],"rotation":[0.476680547,-0.04260192,0.05861941,0.8760848]},{"name":"RightShoulder","children":[62],"translation":[-0.0471354574,0.141148016,-0.00625511771],"rotation":[0.5049319,-0.48948288,0.5147007,0.490442157]},{"name":"Spine2","children":[34,39,63],"translation":[4.03225169E-13,0.121806227,-4.068415E-08],"rotation":[0.04720117,-2.429442E-07,1.15776629E-07,0.998885453]},{"name":"Spine1","children":[64],"translation":[2.35372485E-13,0.130497456,6.29220764E-09],"rotation":[-0.032173723,6.4156346E-08,9.95689362E-08,0.9994824]},{"name":"Spine","children":[65],"translation":[1.22899824E-12,0.09847309,1.40518939E-08],"rotation":[-0.06869366,2.626619E-05,1.81858945E-06,0.9976378]},{"name":"Hips","children":[5,10,66],"translation":[8.767874E-13,1.01919019,0.0100305574],"rotation":[0.0162302032,-2.62365265E-05,-4.23029974E-07,0.999868333]},{"name":"Armature","children":[67]},{"name":"635d0427124f746eb3af6bcc","children":[0,68]},{"name":"Directional Light","translation":[0,3,0],"rotation":[0.408217877,0.234569684,-0.109381631,0.8754261]}],"extensionsRequired":["KHR_texture_transform"],"extensionsUsed":["KHR_texture_transform"],"buffers":[{"uri":"SampleScene.bin","byteLength":786568}],"bufferViews":[{"buffer":0,"byteLength":86406},{"buffer":0,"byteLength":350080,"byteOffset":86408,"byteStride":40},{"buffer":0,"byteLength":70016,"byteOffset":436488,"byteStride":8},{"buffer":0,"byteLength":280064,"byteOffset":506504,"byteStride":32}],"accessors":[{"bufferView":1,"componentType":5126,"count":8752,"type":"VEC3","max":[0.531463265,1.863265,0.226439357],"min":[-0.531470656,-0.000828504562,-0.143292844]},{"bufferView":1,"componentType":5126,"count":8752,"type":"VEC3","byteOffset":12},{"bufferView":1,"componentType":5126,"count":8752,"type":"VEC4","byteOffset":24},{"bufferView":2,"componentType":5126,"count":8752,"type":"VEC2"},{"bufferView":3,"componentType":5126,"count":8752,"type":"VEC4"},{"bufferView":3,"componentType":5125,"count":8752,"type":"VEC4","byteOffset":16},{"bufferView":0,"componentType":5123,"count":43203,"type":"SCALAR"}],"images":[{"name":"635d0427124f746eb3af6bcc.png","uri":"635d0427124f746eb3af6bcc.png","mimeType":"image/png"},{"name":"635d0427124f746eb3af6bcc.png","uri":"635d0427124f746eb3af6bcc_0.png","mimeType":"image/png"},{"name":"Avatar_MetallicGlossMap_Avatar.jpg","uri":"Avatar_MetallicGlossMap_Avatar.jpg","mimeType":"image/jpeg"}],"materials":[{"name":"Material_Avatar","pbrMetallicRoughness":{"baseColorTexture":{"index":1,"extensions":{"KHR_texture_transform":{"offset":[0,1],"scale":[1,-1]}}},"metallicRoughnessTexture":{"index":2,"extensions":{"KHR_texture_transform":{"offset":[0,1],"scale":[1,-1]}}}},"normalTexture":{"index":0,"extensions":{"KHR_texture_transform":{"offset":[0,1],"scale":[1,-1]}}}}],"meshes":[{"name":"SkinnedMesh_Avatar","primitives":[{"attributes":{"POSITION":0,"NORMAL":1,"TANGENT":2,"TEXCOORD_0":3,"JOINTS_0":5,"WEIGHTS_0":4},"indices":6,"material":0}]}],"scene":0,"scenes":[{"name":"SampleScene","nodes":[69,70]}],"textures":[{"source":0},{"source":1},{"source":2}]}